# xmcd
#
# Track frame offsets: 
#        150
#        14199
#        33248
#        54095
#        70830
#        84117
#        94151
#        109758
#        125174
#        139382
#        152432
#        163395
#
# Disc length: 2473 seconds
#
# Revision: 0
# Processed by: cddbd v1.5.2PL0 Copyright (c) Steve Scherf et al.
# Submitted via: ExactAudioCopyFreeDBPlugin 1.0
#
DISCID=9e09a70c
DTITLE=Various Artist - Live Ones
DYEAR=2004
DGENRE=Country
TTITLE0=Merle Haggard - That's The Way Love Goes
TTITLE1=Johnny Lee - Bet Your Heart On Me
TTITLE2=T.G. Sheppard - Finally
TTITLE3=John Conlee - Got My Heart Set On You
TTITLE4=Michael Martin Murphey - What's Forever For
TTITLE5=Collin Raye - One Boy, One Girl
TTITLE6=Willie Nelson - Always On My Mind
TTITLE7=T. Graham Brown - Hell And High Water
TTITLE8=Roy Clark - Come Live With Me
TTITLE9=Larry Gatlin and The Gatlin Brothers - Houston (Means That I'm O
TTITLE9=ne Day Closer To You)
TTITLE10=Eddy Raven - I'm Gonna Get You
TTITLE11=Exile - Kiss You All Over
EXTD=
EXTT0=
EXTT1=
EXTT2=
EXTT3=
EXTT4=
EXTT5=
EXTT6=
EXTT7=
EXTT8=
EXTT9=
EXTT10=
EXTT11=
PLAYORDER=
